<svg id="Layer_1" data-name="Layer 1" xmlns="http://www.w3.org/2000/svg" viewBox="0 0 1024 1024"><path d="M931.66,259.52c0-29.15-19.06-49.67-45.95-49.77-27-.11-46.21,20.08-46.31,49.19-.15,42.28,0,84.57,0,126.85q0,96.87,0,193.73c0,23.74-12,42.05-30.72,47.75-30.54,9.29-59-11.68-59.09-44-.18-69.57,0-139.15,0-208.72h-.06c0-68.42.44-136.84-.13-205.26-.56-67.82-57.6-127.6-125.2-132.38-81.59-5.78-148.7,55.66-149,137.38C474.7,279.16,474.9,384,475,488.9c0,49-.43,97.85-.43,146.82v15.91c-5.49-2.87-9.05-4.9-12.75-6.65-96-45.46-190.35-43.39-278.84,16.52-104.78,71-104.84,202.35-.22,273.39,87.94,59.72,182.76,63.71,277.6,17.52C531.49,917.77,568.86,860.66,568,778.73c-1-96.26-1-192.54-.82-288.81h0c.07-35.34,0-70.68,0-106,0-69.19-.12-138.38.06-207.57.08-31.71,26.82-53,56.23-45.3,21.46,5.64,33.6,23.15,33.61,48.88q.06,198.93.19,397.85c0,13.71.8,27.82,4.06,41C677.81,685.43,742.45,729.28,811,721.28c67.88-7.91,120.41-66.51,120.58-135.41Q932,422.7,931.66,259.52Z" style="fill:#333"/></svg>